{"title":"The Beatles - With The Beatles(Mono)(2009 Remaster)(EAC/FLAC/CUE","uid":5086445,"size":149075852,"categoryP":"audio","categoryS":"flac","magnet":"?xt=urn:btih:df347640ddd3c54150d4d12b4ab6d94bd8053939&amp;dn=The+Beatles+-+With+The+Beatles%28Mono%29%282009+Remaster%29%28EAC%2FFLAC%2FCUE&amp;tr=udp%3A%2F%2Ftracker.openbittorrent.com%3A80&amp;tr=udp%3A%2F%2Fopen.demonii.com%3A1337&amp;tr=udp%3A%2F%2Ftracker.coppersurfer.tk%3A6969&amp;tr=udp%3A%2F%2Fexodus.desync.com%3A6969","seeders":1,"leechers":0,"uploader":"Deltics","files":-1,"time":1252756026,"description":"BEATLES - WITH THE BEATLES (MONO)\n\n---------------------------------------------------------------------\nTHE BEATLES - with the beatles\n---------------------------------------------------------------------\n\nArtist...............: THE BEATLES\nAlbum................: with the beatles\nGenre................: Rock\nSource...............: CD\nYear.................: 1963\nRipper...............: Exact Audio Copy 0.9b4 &amp; Asus CD-S520\nCodec................: Free Lossless Audio Codec (FLAC)\nVersion..............: reference libFLAC 1.2.1 20070917\nQuality..............: Lossless, (avg. compression: 48 %)\nChannels.............: Stereo / 44100 HZ / 16 Bit\nTags.................: VorbisComment\nInformation..........:\n\nRipped by............: pags on 9/11/2009\nPosted by............: pags on 9/11/2009\nNews Server..........:\nNews Group(s)........:\n\nIncluded.............: NFO, SFV, M3U, LOG, CUE\nCovers...............: Front Back CD\n\n---------------------------------------------------------------------\nTracklisting\n---------------------------------------------------------------------\n\n1. (00:02:16) THE BEATLES - It Won't Be Long\n2. (00:02:06) THE BEATLES - All I've Got To Do\n3. (00:02:13) THE BEATLES - All My Loving\n4. (00:02:31) THE BEATLES - Don't Bother Me\n5. (00:01:50) THE BEATLES - Little Child\n6. (00:02:19) THE BEATLES - Till There Was You\n7. (00:02:39) THE BEATLES - Please Mister Postman\n8. (00:02:49) THE BEATLES - Roll Over Beethoven\n9. (00:02:35) THE BEATLES - Hold Me Tight\n10. (00:03:04) THE BEATLES - You Really Got A Hold On Me\n11. (00:02:01) THE BEATLES - I Wanna Be Your Man\n12. (00:02:30) THE BEATLES - Devil In Her Heart\n13. (00:02:12) THE BEATLES - Not A Second Time\n14. (00:02:49) THE BEATLES - Money (That's What I Want)\n\nPlaying Time.........: 00:44:34\nTotal Size...........: 138.55 MB\n\nNFO generated on.....: 9/11/2009 4:40:56 PM\n\n\n:: Generated by Music\nNFO Builder v1.20 - www.nfobuilder.com ::\n\n\nDon't forget to thank all of the uploaders on the site who are donating\ntheir time and bandwidth to bring you the finest quality rips in flac\nformat.\n\n\n----------------------------------------------------------------\n\n\nWith The Beatles Cue Sheet (Mono) (2009 Remaster)\n\n\n\n\n\nREM GENRE Rock\nREM DATE 1963\nREM DISCID D107F10E\nREM COMMENT &quot;ExactAudioCopy v0.99pb4&quot;\nPERFORMER &quot;THE BEATLES&quot;\nTITLE &quot;with the beatles&quot;\nFILE &quot;(01) It Won't Be Long - THE BEATLES .wav&quot; WAVE\n  TRACK 01 AUDIO\n    TITLE &quot;It Won't Be Long&quot;\n    PERFORMER &quot;THE BEATLES&quot;\n    INDEX 01 00:00:00\n  TRACK 02 AUDIO\n    TITLE &quot;All I've Got To Do&quot;\n    PERFORMER &quot;THE BEATLES&quot;\n    INDEX 00 02:11:39\nFILE &quot;(02) All I've Got To Do - THE BEATLES .wav&quot; WAVE\n    INDEX 01 00:00:00\n  TRACK 03 AUDIO\n    TITLE &quot;All My Loving&quot;\n    PERFORMER &quot;THE BEATLES&quot;\n    INDEX 00 02:01:47\nFILE &quot;(03) All My Loving - THE BEATLES .wav&quot; WAVE\n    INDEX 01 00:00:00\n  TRACK 04 AUDIO\n    TITLE &quot;Don't Bother Me&quot;\n    PERFORMER &quot;THE BEATLES&quot;\n    INDEX 00 02:06:33\nFILE &quot;(04) Don't Bother Me - THE BEATLES .wav&quot; WAVE\n    INDEX 01 00:00:00\n  TRACK 05 AUDIO\n    TITLE &quot;Little Child&quot;\n    PERFORMER &quot;THE BEATLES&quot;\n    INDEX 00 02:27:26\nFILE &quot;(05) Little Child - THE BEATLES .wav&quot; WAVE\n    INDEX 01 00:00:00\n  TRACK 06 AUDIO\n    TITLE &quot;Till There Was You&quot;\n    PERFORMER &quot;THE BEATLES&quot;\n    INDEX 00 01:45:36\nFILE &quot;(06) Till There Was You - THE BEATLES .wav&quot; WAVE\n    INDEX 01 00:00:00\n  TRACK 07 AUDIO\n    TITLE &quot;Please Mister Postman&quot;\n    PERFORMER &quot;THE BEATLES&quot;\n    INDEX 00 02:14:27\nFILE &quot;(07) Please Mister Postman - THE BEATLES .wav&quot; WAVE\n    INDEX 01 00:00:00\n  TRACK 08 AUDIO\n    TITLE &quot;Roll Over Beethoven&quot;\n    PERFORMER &quot;THE BEATLES&quot;\n    INDEX 00 02:34:57\nFILE &quot;(08) Roll Over Beethoven - THE BEATLES .wav&quot; WAVE\n    INDEX 01 00:00:00\n  TRACK 09 AUDIO\n    TITLE &quot;Hold Me Tight&quot;\n    PERFORMER &quot;THE BEATLES&quot;\n    INDEX 00 02:44:01\nFILE &quot;(09) Hold Me Tight - THE BEATLES .wav&quot; WAVE\n    INDEX 01 00:00:00\n  TRACK 10 AUDIO\n    TITLE &quot;You Really Got A Hold On Me&quot;\n    PERFORMER &quot;THE BEATLES&quot;\n    INDEX 00 02:30:38\nFILE &quot;(10) You Really Got A Hold On Me - THE BEATLES .wav&quot; WAVE\n    INDEX 01 00:00:00\n  TRACK 11 AUDIO\n    TITLE &quot;I Wanna Be Your Man&quot;\n    PERFORMER &quot;THE BEATLES&quot;\n    INDEX 00 03:00:65\nFILE &quot;(11) I Wanna Be Your Man - THE BEATLES .wav&quot; WAVE\n    INDEX 01 00:00:00\n  TRACK 12 AUDIO\n    TITLE &quot;Devil In Her Heart&quot;\n    PERFORMER &quot;THE BEATLES&quot;\n    INDEX 00 01:57:18\nFILE &quot;(12) Devil In Her Heart - THE BEATLES .wav&quot; WAVE\n    INDEX 01 00:00:00\n  TRACK 13 AUDIO\n    TITLE &quot;Not A Second Time&quot;\n    PERFORMER &quot;THE BEATLES&quot;\n    INDEX 00 02:25:20\nFILE &quot;(13) Not A Second Time - THE BEATLES .wav&quot; WAVE\n    INDEX 01 00:00:00\n  TRACK 14 AUDIO\n    TITLE &quot;Money (That's What I Want)&quot;\n    PERFORMER &quot;THE BEATLES&quot;\n    INDEX 00 02:05:21\nFILE &quot;(14) Money (That's What I Want) - THE BEATLES .wav&quot; WAVE\n    INDEX 01 00:00:00\n\n\n\n\n\n.\n\n\nWith The Beatles Cue &lt;a href=&quot; http://thepiratebay.se/torrent/5087564/&quot; rel=&quot;nofollow&quot; target=&quot;_NEW&quot;&gt; http://thepiratebay.se/torrent/5087564/&lt;/a&gt;\n\n\n\n.\n","torrent":{"xt":"urn:btih:df347640ddd3c54150d4d12b4ab6d94bd8053939","amp;dn":"The+Beatles+-+With+The+Beatles%28Mono%29%282009+Remaster%29%28EAC%2FFLAC%2FCUE","amp;tr":["udp%3A%2F%2Ftracker.openbittorrent.com%3A80","udp%3A%2F%2Fopen.demonii.com%3A1337","udp%3A%2F%2Ftracker.coppersurfer.tk%3A6969","udp%3A%2F%2Fexodus.desync.com%3A6969"],"infoHash":"df347640ddd3c54150d4d12b4ab6d94bd8053939","infoHashBuffer":{"type":"Buffer","data":[223,52,118,64,221,211,197,65,80,212,209,43,74,182,217,75,216,5,57,57]},"announce":[],"urlList":[]}}